# xmcd CD database file
#
# Track frame offsets:
#	150
#	23676
#	38850
#	55702
#	70875
#	74955
#	85433
#	87045
#	90054
#	100070
#	118830
#	132825
#	153345
#	174750
#	189390
#	207818
#	220191
#	231645
#
# Disc length: 3477 seconds
#
# Revision: 2
# Processed by: cddbd v1.4PL0 Copyright (c) Steve Scherf et al.
# Submitted via: CDex 1.50
#
DISCID=ef0d9312
DTITLE=Hosanna! Music - God is Good
DYEAR=1996
DGENRE=Worship
TTITLE0=Sing Out
TTITLE1=Hosanna (Open the Gates)
TTITLE2=Medley: God is Good All the Time
TTITLE3=Celebrate the Lord of Love
TTITLE4=God id Good All the Time Reprise
TTITLE5=Medley: Shouts of Joy
TTITLE6=Sing For Joy in the Lord
TTITLE7=Shouts of Joy Reprise
TTITLE8=Roni, Roni, Bat Zion
TTITLE9=Break Through the Chains
TTITLE10=For Your Glory
TTITLE11=Be It Unto Me
TTITLE12=Blessed Be the Lord God Almighty
TTITLE13=As Bread That is Broken
TTITLE14=Worship You
TTITLE15=Holy
TTITLE16=Lord We Welcome You
TTITLE17=Ain't Gonna Let No Rock
EXTD=YEAR: 1996
EXTT0=
EXTT1=
EXTT2=
EXTT3=
EXTT4=
EXTT5=
EXTT6=
EXTT7=
EXTT8=
EXTT9=
EXTT10=
EXTT11=
EXTT12=
EXTT13=
EXTT14=
EXTT15=
EXTT16=
EXTT17=
PLAYORDER=
